PathFileType	4	(X/Y/Z)	Walk1_0-155.trc
DataRate	CameraRate	NumFrames	NumMarkers	Units	OrigDataRate	OrigDataStartFrame	OrigNumFrames
30	30	9	22	m	30	96	155
Frame#	Time	Hip			RHip			RKnee			RAnkle			RBigToe			RSmallToe			RHeel			LHip			LKnee			LAnkle			LBigToe			LSmallToe			LHeel			Neck			Head			Nose			RShoulder			RElbow			RWrist			LShoulder			LElbow			LWrist		
		X1	Y1	Z1	X2	Y2	Z2	X3	Y3	Z3	X4	Y4	Z4	X5	Y5	Z5	X6	Y6	Z6	X7	Y7	Z7	X8	Y8	Z8	X9	Y9	Z9	X10	Y10	Z10	X11	Y11	Z11	X12	Y12	Z12	X13	Y13	Z13	X14	Y14	Z14	X15	Y15	Z15	X16	Y16	Z16	X17	Y17	Z17	X18	Y18	Z18	X19	Y19	Z19	X20	Y20	Z20	X21	Y21	Z21	X22	Y22	Z22
97	3.2333333333333334	0.1263711534780606	0.9069337132171351	0.34570831371264077	0.1215036468903807	0.8842874868923482	0.4601066569778633	0.2979932586251027	0.5660136036285964	0.4721044931827663	-0.03713240894240231	0.3148742301857038	0.4304727256339475	0.014749777390076713	0.09605013700541787	0.4379627131350295	-0.029720880387766522	0.12135925448538772	0.4740184763283429	-0.13461923551719399	0.2995513017264273	0.4204027176354489	0.12000966927854666	0.8841529768930145	0.23494624841663014	0.1587702755986858	0.5117393479360983	0.26274544739383965	0.11285047327873292	0.10833401631740827	0.2716762748445412	0.3289429537064384	0.047116913500229146	0.2901622694084534	0.2893562943884188	0.04086326071049376	0.23197735786751558	0.06933570323317209	0.0466674460434411	0.2747577219937851	0.08383493625714637	1.5786891548470343	0.3558731514045344	0.13685822857300708	1.83829548610927	0.36547093332906344	0.21925452455736	1.693651780441419	0.3607112755329294	0.013114911640400528	1.4671270715160727	0.5132009592296487	0.07403823213070844	1.171238433911425	0.5716284490043929	0.11332988676673382	0.9064084276834047	0.6013259930371068	0.06645773325247942	1.4645702234562334	0.1672830880740631	0.13403153640254517	1.1600843397911667	0.09109450636615393	0.23395113222384506	0.9112023538552473	0.0840184125550312
98	3.2666666666666666	0.16234363818906603	0.9097912404243169	0.3481690911091491	0.1571742728154509	0.8899948652919899	0.46486435425287387	0.35861721520488715	0.5813978144798606	0.46802095997722054	0.06324382105650896	0.2937389501548085	0.42936465534609725	0.15471054787889824	0.0869352643645758	0.44974876118054186	0.09978652630240002	0.10801375383091162	0.4799530103971023	-0.023861080992039662	0.25945068261556	0.42517908359995543	0.15238453172159944	0.8886712871130856	0.2353388954570218	0.15441732977448056	0.5226447709654224	0.2571070708746024	0.12146024360896684	0.10652971193703471	0.27856596834438985	0.33014486282897354	0.03921579421249825	0.28831183851433134	0.2876987374919414	0.03399910655664509	0.2308830961084322	0.07714122638121731	0.035069665359727255	0.27359991969879544	0.10265688155052563	1.5952221015618366	0.33318432102729756	0.18079279827949746	1.8434117407186412	0.3674318234672732	0.271292246260912	1.689746150981208	0.3503652969699244	0.0488411045762229	1.4752179057695738	0.5155940729759605	0.07365306253611459	1.1658915413992192	0.5644089033717242	0.11640836874434912	0.9095146989228409	0.6058931730119907	0.11149129749424833	1.4685307296662218	0.1666734950369247	0.187572692600589	1.1709414567302527	0.09247188413050922	0.3096595424642674	0.9254542052207501	0.08910783080729971
99	3.3	0.1960535499734774	0.9150190902226628	0.35076578799918695	0.1923156231727536	0.8942194789265155	0.4667980223520195	0.4081485068256246	0.5894979753952715	0.4649159202675071	0.17358291054417987	0.25384028491185046	0.43360303817372714	0.3117834546414718	0.09106077615752037	0.46362014896730336	0.24384995673539347	0.10182251015163273	0.49605061107132326	0.10506394208489317	0.19887217434821156	0.42893512830087255	0.1807443149324252	0.8906048320950152	0.23253327687567446	0.16865583493109132	0.5220722967945254	0.25600146964405096	0.12442144785548535	0.10808197390920252	0.281182431322848	0.3329829341989287	0.0339750340396427	0.2826926764361363	0.28466355307769287	0.029932555552902515	0.22484626355959936	0.07224525899631531	0.0456270188262134	0.28707406868243573	0.14447102469633608	1.5973992819359144	0.33452886977400825	0.22903735245713117	1.842189583005676	0.3658750183792911	0.3269632299806826	1.6905731438111309	0.3318732740933957	0.0851138756559878	1.4762557818616036	0.5185311277906312	0.09311386191472973	1.1701147509882823	0.5701393246694539	0.12482648106590119	0.9160213259136812	0.6129411158018863	0.1562249190663305	1.4719383466822555	0.16708812260967457	0.2344001030042757	1.178465455975478	0.0882164175571309	0.3231327067761205	0.9396781198596696	0.037879314116007916
100	3.3333333333333335	0.23198944825387666	0.9170506827050099	0.3486498110963103	0.24101382131542923	0.8924305476754217	0.47036587332215496	0.4493464239834433	0.5793088656032421	0.4585774486514316	0.28221863513236506	0.20921292048898357	0.43831723243792414	0.47658772695905444	0.07593823035416758	0.45443495120458055	0.41900204610530356	0.0722717676411946	0.4826910048573683	0.2191107225930207	0.14761574206670827	0.4377573975458909	0.21626694630598825	0.8870455791083205	0.23464528062053894	0.18166589100735497	0.5162894662788753	0.25896925798071146	0.13155940817426562	0.11120660356872031	0.28194915168967905	0.33589475271228375	0.022045804380414893	0.29310544682761075	0.2907401116911103	0.024210566029180657	0.23489287066389378	0.07560970023077279	0.04827227558597334	0.29154033187349476	0.18560738683303257	1.5966778034614522	0.33697543853317724	0.2997041747890796	1.8457203284733916	0.40261581196234464	0.36898510528754197	1.687295413402147	0.3339119836534846	0.12295943485315994	1.4755397530815044	0.5240444942657175	0.11413752491263367	1.1733938156593884	0.5757086316629636	0.13799962992892673	0.9210351005153953	0.6185439862149317	0.19704796057770854	1.474145217827976	0.1658132477837264	0.2803471576746842	1.1842344797553044	0.08490786947658956	0.3953533518344956	0.951172514792571	0.04821325180707109
101	3.3666666666666667	0.2665846771330238	0.9167164235500792	0.35219704700331295	0.2795525775192966	0.8908696107330484	0.47428372309042033	0.4887602096852147	0.5703185873324005	0.4502243069720467	0.4128762029360008	0.16721158594095056	0.44676935097404324	0.6201387163434993	0.08053875247305438	0.4584529917252575	0.577016481762441	0.07389665840304391	0.4935076594845099	0.36991726423172355	0.0997489608850243	0.44498974797943414	0.2478730534787277	0.8870922155571246	0.23829918370345082	0.20562327309986536	0.5016917048304244	0.2638843031066309	0.13430365993995427	0.10628273811264138	0.28554539510013316	0.3314484222486635	0.024414963917505667	0.29863337215861147	0.2832900807864998	0.022305565683607056	0.2371699010864523	0.07591041767187313	0.049008821924166446	0.2952273542501062	0.22559915864426042	1.59524304541191	0.3369895075775635	0.3069970904285845	1.8483503843644118	0.367689362066624	0.3959607870927043	1.6823450218891793	0.3511866356789214	0.16580468023054906	1.4741432011063316	0.5226939246414634	0.13650881133158482	1.1736142289785063	0.5778886980664221	0.15397493292299644	0.9169238659291203	0.6241628555491587	0.2409872051919678	1.4733542256554817	0.17029560842876368	0.3256566734575971	1.1882818163070632	0.08245266735756158	0.5000341849724093	0.9683711712758051	0.09454823668081068
102	3.4	0.30454739842188705	0.9126116418719374	0.3525922242362043	0.316444113422071	0.8867318953019895	0.46928369848855384	0.5190837824769703	0.5597915455816233	0.45058587975120257	0.5270063161801704	0.14907097132738187	0.4538224478946431	0.7321771280364527	0.09453699017201436	0.4643691607410237	0.6989821833290073	0.08028484365124851	0.4989552316536913	0.507912175129726	0.07573857376370491	0.4529962814433117	0.28548853307043426	0.8873233547123018	0.24034235925972705	0.20692420655036506	0.5067879675321615	0.25340968248039863	0.135726667210919	0.11624779242977142	0.2842264364972608	0.32798340872154075	0.030576063869418395	0.2955192219223874	0.2504650915096094	0.018523470341603263	0.21022109502149336	0.07460616720814242	0.04311551556048356	0.30118367182175876	0.2668355696903005	1.5907099312935338	0.33896752666355073	0.3267729344346655	1.8473732431867966	0.3530922544396973	0.4549967587220745	1.6745494268375833	0.34542839942095743	0.20646745756955975	1.470240204029503	0.5175962915680525	0.16915874035616274	1.1711691183445991	0.5778273191120389	0.1783438516300093	0.9116730559011963	0.62958849386805	0.2849125848718621	1.4727876329860536	0.17513068154789999	0.3702296613258549	1.1908183739960954	0.08602400669853955	0.5584973016621206	0.9815529163675865	0.10071458007341472
103	3.433333333333333	0.3459372385536911	0.9053377189611069	0.3567950251540433	0.35509562973139835	0.8788937611537306	0.4691237718787423	0.5531584370151912	0.5452807913207451	0.4554507132811398	0.6274886592121017	0.15536010690515512	0.46374495259863513	0.8373234088365286	0.11210696822915603	0.4685675402141954	0.8050741144904373	0.09784605508199593	0.509969460999584	0.6142052813252844	0.08127648104894976	0.4678693162293687	0.32428466380481835	0.8788893323910818	0.24516503276224325	0.24697248291182292	0.4916408035205045	0.27780707355470613	0.13734267992983915	0.11222933068471529	0.28254415678251377	0.2907237377945933	0.020472438128244223	0.2579325848611149	0.28114096338231087	0.015772501402096267	0.23226514384815852	0.07012194784819799	0.04357096749320251	0.3019397916818905	0.308644677218258	1.5862025794551597	0.3411146424108492	0.38771156248418315	1.837268220426396	0.3761994329882299	0.49298221379821144	1.6693913247212127	0.3518493944132189	0.24740023902812028	1.462922174741197	0.5193206184000818	0.20164151306541914	1.1670136046372046	0.57862047960915	0.20153835668536804	0.9069425703169127	0.6333687202258987	0.33158521297527493	1.4698912060015998	0.17884576800321286	0.4159523309196541	1.1882464564697277	0.08741068015884858	0.6161647850660805	0.989741881259979	0.10729018139798446
104	3.466666666666667	0.38740891988702775	0.9000066810605015	0.3573910661972842	0.39869676330649906	0.8732032145601388	0.47349885802680464	0.5973936333909413	0.5405018609414421	0.4594092667459234	0.7020801788591656	0.1532177715399657	0.4623050160951759	0.9071907678016157	0.13392890105905764	0.4798622759743985	0.8802430982118877	0.1146093078356437	0.5149764317476547	0.6921480666008876	0.08128167918807021	0.46659387368345406	0.3630697342031653	0.8752962474013569	0.24920355911006545	0.2598496798043612	0.4973625283928786	0.2608337866269017	0.13280978438456195	0.11558802690856065	0.2893651100038496	0.29537914668179427	0.019548165001285995	0.2643070576775208	0.25215285191332887	0.0124836061380707	0.21125242482401477	0.07718529290835124	0.04905278473461023	0.29010598492317935	0.3546834275671892	1.577872025854127	0.3442560153393664	0.4152206383218937	1.8322587888814594	0.36316495751213046	0.5363061968855233	1.6624386473208363	0.3533659659029965	0.2926824687335118	1.4553938252471041	0.5248623307324152	0.2422678863260118	1.1592319439568264	0.5814920459110857	0.23378423691790298	0.9025783562010258	0.6383643430178729	0.3749282404456499	1.4622909707064289	0.18075500909015968	0.4633508316795976	1.1826323044680036	0.09441227205304699	0.6674901028301414	0.9912586893560347	0.11036740854335958
105	3.5	0.43627983815741334	0.8926809462552402	0.3690584329258252	0.4488149780264137	0.8737220415086847	0.48708537434457877	0.6416019522282923	0.5341386048461653	0.4641173854289516	0.7512629647991298	0.1371084400200156	0.45392094602215666	0.9602182042698799	0.1275860228023621	0.4708930682687785	0.9719268838585078	0.0817013797137602	0.5276664998054097	0.7447467147102503	0.06774116999491162	0.4534427153494308	0.41052947633301906	0.8755388336928066	0.2561418807727103	0.29574186439086986	0.5036150239568754	0.2609453748394544	0.1387668070429073	0.12192381079525234	0.2879143895501084	0.30753458377807347	0.013193382678566462	0.26584285792299794	0.2605197036981455	0.005070228435365102	0.21170713968264993	0.07095313306788496	0.048658379361213075	0.2990057559069294	0.4013272753469855	1.5697154810977179	0.3522285729323072	0.45399956405080405	1.8265851574134635	0.3627238258031403	0.5815310449148605	1.6569733794786614	0.3575422225405054	0.3409340682925029	1.4454264607390501	0.530198791890392	0.2836118699106372	1.1532235500807293	0.5824135233404698	0.2616339236414871	0.892845801766288	0.6369198972300182	0.42102708602104105	1.4521358948559762	0.1864651875554075	0.5072055392126811	1.1750232891942556	0.09777070526559332	0.7081033164100407	0.9859772505259117	0.11209248254862332
